<?xml version="1.0" encoding="UTF-8"?>
<svg width="36px" height="38px" viewBox="0 0 36 38" version="1.1" xmlns="http://www.w3.org/2000/svg" xmlns:xlink="http://www.w3.org/1999/xlink">
    <!-- Generator: Sketch 47 (45396) - http://www.bohemiancoding.com/sketch -->
    <title>Group 2</title>
    <desc>Created with Sketch.</desc>
    <defs></defs>
    <g id="Page-1" stroke="none" stroke-width="1" fill="none" fill-rule="evenodd">
        <g id="Game" transform="translate(-103.000000, -503.000000)" fill="#2B2B2B">
            <g id="Group-4" transform="translate(69.000000, 485.000000)">
                <g id="Group-3" transform="translate(0.000000, 1.000000)">
                    <g id="Group-2" transform="translate(34.000000, 17.000000)">
                        <g id="Arrow-33" transform="translate(0.000000, 15.000000)">
                            <path d="M0,0 C3.27584267e-05,-0.00011315912 2.40811126,6.08084493 7.48879255,9.98635889 C12.5784693,13.8865943 20.8310573,12.2930743 20.8310573,12.2930743 L19.3922548,7.57274143 C19.3387407,7.39715176 19.4354501,7.21073209 19.608277,7.1563558 C19.6990703,7.12779311 19.7976076,7.14069991 19.8782982,7.19173467 L29.8454885,13.4954432 C29.9990796,13.5925803 30.046088,13.7978243 29.9504727,13.9538774 C29.9369172,13.9760033 29.9208459,13.9964385 29.9025929,14.014757 L21.0462016,22.903945 C20.9175003,23.0331261 20.710087,23.0318481 20.5829385,22.9010828 C20.5078758,22.8238949 20.474567,22.7143702 20.4936849,22.6076146 L21.2616407,18.3184379 C21.2613393,18.3185777 11.8502298,19.2339684 6.0846419,14.1075741 C0.311362294,8.98528675 3.27584267e-05,-0.000272913171 0,0 L0,0 Z" id="Arrow-33-shape"></path>
                        </g>
                        <g id="Arrow-33" transform="translate(21.000000, 11.500000) scale(-1, -1) translate(-21.000000, -11.500000) translate(6.000000, 0.000000)">
                            <path d="M0,0 C3.27584267e-05,-0.00011315912 2.40811126,6.08084493 7.48879255,9.98635889 C12.5784693,13.8865943 20.8310573,12.2930743 20.8310573,12.2930743 L19.3922548,7.57274143 C19.3387407,7.39715176 19.4354501,7.21073209 19.608277,7.1563558 C19.6990703,7.12779311 19.7976076,7.14069991 19.8782982,7.19173467 L29.8454885,13.4954432 C29.9990796,13.5925803 30.046088,13.7978243 29.9504727,13.9538774 C29.9369172,13.9760033 29.9208459,13.9964385 29.9025929,14.014757 L21.0462016,22.903945 C20.9175003,23.0331261 20.710087,23.0318481 20.5829385,22.9010828 C20.5078758,22.8238949 20.474567,22.7143702 20.4936849,22.6076146 L21.2616407,18.3184379 C21.2613393,18.3185777 11.8502298,19.2339684 6.0846419,14.1075741 C0.311362294,8.98528675 3.27584267e-05,-0.000272913171 0,0 L0,0 Z" id="Arrow-33-shape"></path>
                        </g>
                    </g>
                </g>
            </g>
        </g>
    </g>
</svg>